<?xml version="1.0" encoding="UTF-8"?>
<svg xmlns="http://www.w3.org/2000/svg" xmlns:xlink="http://www.w3.org/1999/xlink" width="68px" height="50px" viewBox="0 0 67 50" version="1.1">
<g id="surface1">
<path style=" stroke:none;fill-rule:nonzero;fill:rgb(0%,0%,0%);fill-opacity:1;" d="M 0.046875 1.324219 L 0.113281 2.675781 L 6.539062 2.859375 C 10.074219 2.953125 13.515625 2.976562 14.179688 2.90625 L 15.375 2.765625 L 15.375 0 L -0.0234375 0 Z M 0.046875 1.324219 "/>
<path style=" stroke:none;fill-rule:nonzero;fill:rgb(0%,0%,0%);fill-opacity:1;" d="M 2.753906 25 L 2.753906 45.347656 L 12.597656 45.347656 L 12.710938 44.347656 C 12.894531 42.746094 13.101562 9.347656 12.941406 6.90625 L 12.78125 4.652344 L 2.753906 4.652344 Z M 5.621094 25 L 5.621094 44.300781 L 3.785156 44.300781 L 3.71875 25.234375 C 3.695312 14.746094 3.71875 6.023438 3.785156 5.859375 C 3.855469 5.652344 4.199219 5.582031 4.75 5.628906 L 5.621094 5.699219 Z M 8.605469 25 L 8.605469 44.300781 L 6.769531 44.300781 L 6.699219 25.234375 C 6.675781 14.746094 6.699219 6.023438 6.769531 5.859375 C 6.835938 5.652344 7.183594 5.582031 7.734375 5.628906 L 8.605469 5.699219 Z M 11.585938 25 L 11.585938 44.300781 L 9.75 44.300781 L 9.683594 25.234375 C 9.660156 14.746094 9.683594 6.023438 9.75 5.859375 C 9.820312 5.652344 10.164062 5.582031 10.714844 5.628906 L 11.585938 5.699219 Z M 11.585938 25 "/>
<path style=" stroke:none;fill-rule:nonzero;fill:rgb(0%,0%,0%);fill-opacity:1;" d="M 18.929688 6.582031 C 18.859375 6.746094 18.839844 9.023438 18.859375 11.628906 L 18.929688 16.394531 L 29.945312 16.394531 L 29.945312 6.394531 L 24.484375 6.324219 C 20.191406 6.277344 19 6.324219 18.929688 6.582031 Z M 18.929688 6.582031 "/>
<path style=" stroke:none;fill-rule:nonzero;fill:rgb(0%,0%,0%);fill-opacity:1;" d="M 19.042969 22.441406 L 19.042969 27.441406 L 29.828125 27.441406 L 29.828125 17.441406 L 19.042969 17.441406 Z M 29.027344 22.558594 L 29.027344 26.628906 L 19.847656 26.628906 L 19.777344 22.789062 C 19.753906 20.699219 19.777344 18.835938 19.847656 18.675781 C 19.917969 18.417969 20.925781 18.371094 24.484375 18.417969 L 29.027344 18.488281 Z M 29.027344 22.558594 "/>
<path style=" stroke:none;fill-rule:nonzero;fill:rgb(0%,0%,0%);fill-opacity:1;" d="M 31.089844 17.746094 C 31.023438 17.90625 31 20.234375 31.023438 22.90625 L 31.089844 27.789062 L 42.105469 27.789062 L 42.105469 17.558594 L 36.644531 17.488281 C 32.351562 17.441406 31.160156 17.488281 31.089844 17.746094 Z M 31.089844 17.746094 "/>
<path style=" stroke:none;fill-rule:nonzero;fill:rgb(0%,0%,0%);fill-opacity:1;" d="M 32.214844 28.558594 L 31.042969 28.628906 L 30.882812 33.347656 C 30.816406 35.953125 30.792969 38.253906 30.882812 38.464844 C 31 38.789062 31.640625 38.835938 36.597656 38.835938 L 42.171875 38.835938 L 42.3125 38.300781 C 42.539062 37.417969 42.171875 28.8125 41.898438 28.722656 C 41.554688 28.605469 33.636719 28.464844 32.214844 28.558594 Z M 41.1875 33.835938 L 41.1875 37.789062 L 32.007812 37.789062 L 31.941406 34.070312 C 31.917969 32.046875 31.941406 30.234375 32.007812 30.070312 C 32.078125 29.8125 33.0625 29.765625 36.644531 29.8125 L 41.1875 29.882812 Z M 41.1875 33.835938 "/>
<path style=" stroke:none;fill-rule:nonzero;fill:rgb(0%,0%,0%);fill-opacity:1;" d="M 46.234375 28.605469 L 43.023438 28.722656 L 43.023438 38.722656 L 47.839844 38.90625 C 50.503906 39 53.003906 39.023438 53.417969 38.953125 L 54.152344 38.8125 L 54.152344 33.746094 C 54.152344 29.324219 54.105469 28.628906 53.785156 28.511719 C 53.417969 28.371094 51.558594 28.394531 46.234375 28.605469 Z M 46.234375 28.605469 "/>
<path style=" stroke:none;fill-rule:nonzero;fill:rgb(0%,0%,0%);fill-opacity:1;" d="M 18.929688 28.882812 C 18.859375 29.046875 18.792969 31.371094 18.769531 34.070312 L 18.699219 38.953125 L 29.945312 38.953125 L 29.945312 28.722656 L 24.484375 28.652344 C 20.238281 28.605469 19 28.652344 18.929688 28.882812 Z M 18.929688 28.882812 "/>
<path style=" stroke:none;fill-rule:nonzero;fill:rgb(0%,0%,0%);fill-opacity:1;" d="M 18.929688 40.070312 C 18.859375 40.234375 18.839844 42.511719 18.859375 45.117188 L 18.929688 49.882812 L 29.945312 49.882812 L 29.945312 39.882812 L 24.484375 39.8125 C 20.191406 39.765625 19 39.8125 18.929688 40.070312 Z M 29.027344 44.882812 L 29.027344 48.953125 L 19.847656 48.953125 L 19.777344 45.117188 C 19.753906 43.023438 19.777344 41.164062 19.847656 41 C 19.917969 40.746094 20.925781 40.699219 24.484375 40.746094 L 29.027344 40.8125 Z M 29.027344 44.882812 "/>
<path style=" stroke:none;fill-rule:nonzero;fill:rgb(0%,0%,0%);fill-opacity:1;" d="M 30.976562 44.882812 L 30.976562 50 L 42.21875 50 L 42.21875 39.765625 L 30.976562 39.765625 Z M 30.976562 44.882812 "/>
<path style=" stroke:none;fill-rule:nonzero;fill:rgb(0%,0%,0%);fill-opacity:1;" d="M 43.136719 44.882812 L 43.136719 50 L 54.152344 50 L 54.152344 39.765625 L 43.136719 39.765625 Z M 53.117188 44.882812 L 53.117188 48.953125 L 44.167969 48.953125 L 44.101562 45.117188 C 44.078125 43.023438 44.101562 41.164062 44.167969 41 C 44.238281 40.746094 45.226562 40.699219 48.691406 40.746094 L 53.117188 40.8125 Z M 53.117188 44.882812 "/>
<path style=" stroke:none;fill-rule:nonzero;fill:rgb(0%,0%,0%);fill-opacity:1;" d="M 55.160156 40.023438 C 55.089844 40.164062 55 42.347656 55 44.882812 C 55 47.417969 55.089844 49.605469 55.160156 49.746094 C 55.273438 49.929688 57.042969 50 60.828125 50 L 66.3125 50 L 66.3125 39.765625 L 60.828125 39.765625 C 57.042969 39.765625 55.273438 39.835938 55.160156 40.023438 Z M 55.160156 40.023438 "/>
<path style=" stroke:none;fill-rule:nonzero;fill:rgb(0%,0%,0%);fill-opacity:1;" d="M 0 48.140625 L 0 49.535156 L 15.375 49.535156 L 15.375 46.746094 L 0 46.746094 Z M 0 48.140625 "/>
</g>
</svg>
