<?xml version="1.0" standalone="no"?>
<!DOCTYPE svg PUBLIC "-//W3C//DTD SVG 20010904//EN"
 "http://www.w3.org/TR/2001/REC-SVG-20010904/DTD/svg10.dtd">
<svg version="1.0" xmlns="http://www.w3.org/2000/svg"
 width="847.000000pt" height="216.000000pt" viewBox="0 0 847.000000 216.000000"
 preserveAspectRatio="xMidYMid meet">

<g transform="translate(0.000000,216.000000) scale(0.100000,-0.100000)"
fill="#000000" stroke="none">
<path d="M2 2103 l3 -58 280 -8 c154 -4 304 -5 333 -2 l52 6 0 60 0 59 -335 0
-336 0 3 -57z"/>
<path d="M120 1085 l0 -875 214 0 215 0 5 43 c8 69 17 1505 10 1610 l-7 97
-218 0 -219 0 0 -875z m125 0 l0 -830 -40 0 -40 0 -3 820 c-1 451 0 826 3 833
3 9 18 12 42 10 l38 -3 0 -830z m130 0 l0 -830 -40 0 -40 0 -3 820 c-1 451 0
826 3 833 3 9 18 12 42 10 l38 -3 0 -830z m130 0 l0 -830 -40 0 -40 0 -3 820
c-1 451 0 826 3 833 3 9 18 12 42 10 l38 -3 0 -830z"/>
<path d="M825 1877 c-3 -7 -4 -105 -3 -217 l3 -205 240 0 240 0 0 215 0 215
-238 3 c-187 2 -239 0 -242 -11z"/>
<path d="M830 1195 l0 -215 235 0 235 0 0 215 0 215 -235 0 -235 0 0 -215z
m435 -5 l0 -175 -200 0 -200 0 -3 165 c-1 90 0 170 3 177 3 11 47 13 202 11
l198 -3 0 -175z"/>
<path d="M1355 1397 c-3 -7 -4 -107 -3 -222 l3 -210 240 0 240 0 0 220 0 220
-238 3 c-187 2 -239 0 -242 -11z"/>
<path d="M1404 932 l-51 -3 -7 -203 c-3 -112 -4 -211 0 -220 5 -14 33 -16 249
-16 l243 0 6 23 c10 38 -6 408 -18 412 -15 5 -360 11 -422 7z m391 -227 l0
-170 -200 0 -200 0 -3 160 c-1 87 0 165 3 172 3 11 46 13 202 11 l198 -3 0
-170z"/>
<path d="M2015 930 l-140 -5 0 -215 0 -215 210 -8 c116 -4 225 -5 243 -2 l32
6 0 218 c0 190 -2 220 -16 225 -16 6 -97 5 -329 -4z"/>
<path d="M825 918 c-3 -7 -6 -107 -7 -223 l-3 -210 245 0 245 0 0 220 0 220
-238 3 c-185 2 -239 0 -242 -10z"/>
<path d="M825 437 c-3 -7 -4 -105 -3 -217 l3 -205 240 0 240 0 0 215 0 215
-238 3 c-187 2 -239 0 -242 -11z m440 -207 l0 -175 -200 0 -200 0 -3 165 c-1
90 0 170 3 177 3 11 47 13 202 11 l198 -3 0 -175z"/>
<path d="M1350 230 l0 -220 245 0 245 0 0 220 0 220 -245 0 -245 0 0 -220z"/>
<path d="M1880 230 l0 -220 240 0 240 0 0 220 0 220 -240 0 -240 0 0 -220z
m435 0 l0 -175 -195 0 -195 0 -3 165 c-1 90 0 170 3 177 3 11 46 13 197 11
l193 -3 0 -175z"/>
<path d="M2404 439 c-3 -6 -7 -100 -7 -209 0 -109 4 -203 7 -209 5 -8 82 -11
247 -11 l239 0 0 220 0 220 -239 0 c-165 0 -242 -3 -247 -11z"/>
<path d="M4647 426 c-95 -26 -132 -91 -125 -223 4 -76 19 -108 69 -146 87 -64
236 -24 255 69 5 28 3 32 -27 44 -29 13 -34 12 -43 -5 -24 -40 -46 -55 -85
-55 -47 0 -68 18 -77 66 -9 48 0 140 15 158 18 22 94 21 112 0 27 -33 74 -37
107 -9 2 2 -8 21 -21 42 -37 58 -101 79 -180 59z"/>
<path d="M4134 423 c-18 -3 -35 -38 -93 -184 -39 -99 -71 -185 -71 -190 0 -15
50 -22 75 -11 15 7 28 24 33 44 8 32 9 33 70 36 68 3 102 -9 102 -37 0 -23 17
-37 55 -45 63 -13 62 -2 -21 198 -43 104 -83 186 -90 186 -7 0 -18 2 -26 4 -7
2 -23 1 -34 -1z m49 -166 c9 -23 17 -46 17 -50 0 -4 -18 -7 -40 -7 -22 0 -40
3 -40 7 0 14 33 93 39 93 3 0 14 -19 24 -43z"/>
<path d="M5065 417 c-3 -7 -4 -96 -3 -197 l3 -185 150 0 150 0 0 30 0 30 -107
3 -108 3 0 49 0 49 98 3 97 3 0 30 0 30 -98 3 -98 3 3 42 3 42 103 3 103 3 -3
32 -3 32 -143 3 c-110 2 -144 0 -147 -11z"/>
<path d="M5734 421 c-2 -2 -4 -89 -4 -193 l0 -189 38 3 37 3 5 113 5 113 68
-114 c63 -107 70 -115 104 -120 20 -4 40 -4 45 -1 4 3 8 90 8 195 l0 189 -35
0 -35 0 0 -127 c-1 -123 -1 -127 -17 -98 -9 17 -27 43 -39 58 -13 16 -24 34
-24 41 0 6 -16 37 -35 68 -32 51 -39 56 -76 60 -22 2 -42 2 -45 -1z"/>
<path d="M7410 393 c-53 -46 -70 -85 -70 -166 0 -77 29 -141 80 -175 31 -21
44 -23 117 -20 64 2 88 8 110 24 43 32 65 78 71 149 11 146 -64 225 -214 225
-44 0 -56 -5 -94 -37z m142 -43 c11 0 33 -13 49 -29 25 -25 29 -37 29 -83 0
-90 -53 -148 -122 -133 -41 9 -78 68 -78 124 0 65 51 139 88 126 8 -3 23 -5
34 -5z"/>
<path d="M8200 392 c-46 -45 -51 -79 -21 -128 14 -24 37 -37 105 -63 48 -18
90 -40 93 -49 9 -21 -32 -52 -69 -52 -28 0 -78 38 -78 60 0 5 -18 10 -40 10
-35 0 -40 -3 -40 -22 0 -36 38 -88 75 -104 45 -19 148 -18 185 1 39 20 50 43
50 107 0 70 -15 85 -124 127 -89 35 -106 54 -61 71 27 10 38 8 103 -22 76 -35
98 2 37 62 -32 31 -42 35 -105 38 l-70 4 -40 -40z"/>
<path d="M3012 228 l3 -193 35 0 35 0 5 70 5 70 76 5 c69 5 78 8 108 38 40 40
51 94 27 140 -26 51 -60 62 -186 62 l-110 0 2 -192z m196 108 c16 -9 15 -51 0
-64 -7 -5 -33 -12 -58 -13 l-45 -4 -3 39 c-5 58 0 64 50 56 24 -3 49 -10 56
-14z"/>
<path d="M3522 228 l3 -193 140 0 140 0 0 30 0 30 -102 3 -103 3 0 49 0 49 93
3 92 3 3 33 3 32 -95 0 -96 0 0 40 0 39 103 3 102 3 0 30 0 30 -143 3 -142 3
2 -193z"/>
<path d="M5580 230 l0 -190 40 0 40 0 0 190 0 190 -40 0 -40 0 0 -190z"/>
<path d="M6100 390 c0 -30 1 -30 55 -30 l55 0 0 -160 0 -160 40 0 40 0 0 160
0 160 55 0 c54 0 55 0 55 30 l0 30 -150 0 -150 0 0 -30z"/>
<path d="M6450 230 l0 -190 151 0 150 0 -3 28 -3 27 -105 5 -105 5 0 50 0 50
98 3 97 3 0 29 0 29 -97 3 -98 3 0 40 0 40 103 3 102 3 0 29 0 30 -145 0 -145
0 0 -190z"/>
<path d="M6820 231 l0 -191 35 0 35 0 0 74 c0 41 3 77 8 79 4 2 21 0 38 -4 22
-6 43 -27 79 -79 l48 -70 49 0 c26 0 48 4 48 9 0 14 -49 83 -87 122 l-35 36
26 7 c67 17 90 111 42 171 l-24 30 -131 3 -131 4 0 -191z m207 107 c8 -6 13
-23 11 -37 -3 -23 -9 -27 -60 -35 -76 -11 -88 -5 -88 42 0 21 3 42 8 46 10 11
113 -2 129 -16z"/>
<path d="M7200 230 l0 -190 40 0 40 0 0 190 0 190 -40 0 -40 0 0 -190z"/>
<path d="M7780 230 l0 -190 40 0 40 0 0 75 c0 73 1 75 25 75 30 0 47 -16 99
-93 l39 -57 54 0 c41 0 52 3 46 13 -45 73 -87 129 -105 138 -21 11 -20 12 13
26 46 19 69 50 69 96 0 86 -39 107 -205 107 l-115 0 0 -190z m190 117 c28 -10
34 -17 32 -36 -4 -43 -21 -52 -81 -49 -56 3 -56 3 -59 36 -2 19 -1 40 2 48 7
17 58 17 106 1z"/>
<path d="M0 90 l0 -60 335 0 335 0 0 60 0 60 -335 0 -335 0 0 -60z"/>
</g>
</svg>
