<?xml version="1.0" encoding="UTF-8"?>
<svg xmlns="http://www.w3.org/2000/svg" xmlns:xlink="http://www.w3.org/1999/xlink" width="15px" height="15px" viewBox="0 0 15 15" version="1.1">
<g id="surface1">
<path style=" stroke:none;fill-rule:nonzero;fill:rgb(0%,0%,0%);fill-opacity:1;" d="M 0.121094 0.398438 L 0.136719 0.800781 L 1.550781 0.859375 C 2.332031 0.886719 3.089844 0.894531 3.238281 0.871094 L 3.5 0.828125 L 3.5 0 L 0.105469 0 Z M 0.121094 0.398438 "/>
<path style=" stroke:none;fill-rule:nonzero;fill:rgb(0%,0%,0%);fill-opacity:1;" d="M 0.71875 7.5 L 0.71875 13.605469 L 2.890625 13.605469 L 2.914062 13.304688 C 2.953125 12.824219 3 2.804688 2.964844 2.070312 L 2.929688 1.394531 L 0.71875 1.394531 Z M 1.351562 7.5 L 1.351562 13.289062 L 0.945312 13.289062 L 0.929688 7.570312 C 0.925781 4.425781 0.929688 1.808594 0.945312 1.757812 C 0.960938 1.695312 1.035156 1.675781 1.15625 1.6875 L 1.351562 1.710938 Z M 2.007812 7.5 L 2.007812 13.289062 L 1.605469 13.289062 L 1.589844 7.570312 C 1.582031 4.425781 1.589844 1.808594 1.605469 1.757812 C 1.617188 1.695312 1.695312 1.675781 1.816406 1.6875 L 2.007812 1.710938 Z M 2.667969 7.5 L 2.667969 13.289062 L 2.261719 13.289062 L 2.246094 7.570312 C 2.242188 4.425781 2.246094 1.808594 2.261719 1.757812 C 2.277344 1.695312 2.351562 1.675781 2.472656 1.6875 L 2.667969 1.710938 Z M 2.667969 7.5 "/>
<path style=" stroke:none;fill-rule:nonzero;fill:rgb(0%,0%,0%);fill-opacity:1;" d="M 4.285156 1.972656 C 4.269531 2.023438 4.265625 2.707031 4.269531 3.488281 L 4.285156 4.917969 L 6.714844 4.917969 L 6.714844 1.917969 L 5.511719 1.898438 C 4.5625 1.882812 4.300781 1.898438 4.285156 1.972656 Z M 4.285156 1.972656 "/>
<path style=" stroke:none;fill-rule:nonzero;fill:rgb(0%,0%,0%);fill-opacity:1;" d="M 4.3125 6.730469 L 4.3125 8.230469 L 6.691406 8.230469 L 6.691406 5.230469 L 4.3125 5.230469 Z M 6.511719 6.769531 L 6.511719 7.988281 L 4.488281 7.988281 L 4.472656 6.835938 C 4.46875 6.210938 4.472656 5.652344 4.488281 5.601562 C 4.503906 5.527344 4.726562 5.511719 5.511719 5.527344 L 6.511719 5.546875 Z M 6.511719 6.769531 "/>
<path style=" stroke:none;fill-rule:nonzero;fill:rgb(0%,0%,0%);fill-opacity:1;" d="M 6.96875 5.324219 C 6.953125 5.371094 6.949219 6.070312 6.953125 6.871094 L 6.96875 8.335938 L 9.398438 8.335938 L 9.398438 5.269531 L 8.195312 5.246094 C 7.246094 5.230469 6.984375 5.246094 6.96875 5.324219 Z M 6.96875 5.324219 "/>
<path style=" stroke:none;fill-rule:nonzero;fill:rgb(0%,0%,0%);fill-opacity:1;" d="M 7.214844 8.566406 L 6.957031 8.589844 L 6.921875 10.003906 C 6.90625 10.785156 6.902344 11.476562 6.921875 11.539062 C 6.949219 11.636719 7.089844 11.652344 8.183594 11.652344 L 9.414062 11.652344 L 9.445312 11.488281 C 9.492188 11.226562 9.414062 8.644531 9.351562 8.617188 C 9.277344 8.582031 7.53125 8.539062 7.214844 8.566406 Z M 9.195312 10.152344 L 9.195312 11.335938 L 7.171875 11.335938 L 7.15625 10.222656 C 7.152344 9.613281 7.15625 9.070312 7.171875 9.019531 C 7.1875 8.945312 7.402344 8.929688 8.195312 8.945312 L 9.195312 8.964844 Z M 9.195312 10.152344 "/>
<path style=" stroke:none;fill-rule:nonzero;fill:rgb(0%,0%,0%);fill-opacity:1;" d="M 10.308594 8.582031 L 9.601562 8.617188 L 9.601562 11.617188 L 10.664062 11.671875 C 11.25 11.699219 11.800781 11.707031 11.894531 11.6875 L 12.054688 11.644531 L 12.054688 10.125 C 12.054688 8.796875 12.046875 8.589844 11.976562 8.554688 C 11.894531 8.511719 11.484375 8.519531 10.308594 8.582031 Z M 10.308594 8.582031 "/>
<path style=" stroke:none;fill-rule:nonzero;fill:rgb(0%,0%,0%);fill-opacity:1;" d="M 4.285156 8.664062 C 4.269531 8.714844 4.253906 9.410156 4.25 10.222656 L 4.234375 11.6875 L 6.714844 11.6875 L 6.714844 8.617188 L 5.511719 8.597656 C 4.574219 8.582031 4.300781 8.597656 4.285156 8.664062 Z M 4.285156 8.664062 "/>
<path style=" stroke:none;fill-rule:nonzero;fill:rgb(0%,0%,0%);fill-opacity:1;" d="M 4.285156 12.019531 C 4.269531 12.070312 4.265625 12.753906 4.269531 13.535156 L 4.285156 14.964844 L 6.714844 14.964844 L 6.714844 11.964844 L 5.511719 11.945312 C 4.5625 11.929688 4.300781 11.945312 4.285156 12.019531 Z M 6.511719 13.464844 L 6.511719 14.6875 L 4.488281 14.6875 L 4.472656 13.535156 C 4.46875 12.90625 4.472656 12.347656 4.488281 12.300781 C 4.503906 12.222656 4.726562 12.210938 5.511719 12.222656 L 6.511719 12.242188 Z M 6.511719 13.464844 "/>
<path style=" stroke:none;fill-rule:nonzero;fill:rgb(0%,0%,0%);fill-opacity:1;" d="M 6.941406 13.464844 L 6.941406 15 L 9.421875 15 L 9.421875 11.929688 L 6.941406 11.929688 Z M 6.941406 13.464844 "/>
<path style=" stroke:none;fill-rule:nonzero;fill:rgb(0%,0%,0%);fill-opacity:1;" d="M 9.625 13.464844 L 9.625 15 L 12.054688 15 L 12.054688 11.929688 L 9.625 11.929688 Z M 11.828125 13.464844 L 11.828125 14.6875 L 9.851562 14.6875 L 9.839844 13.535156 C 9.832031 12.90625 9.839844 12.347656 9.851562 12.300781 C 9.867188 12.222656 10.085938 12.210938 10.851562 12.222656 L 11.828125 12.242188 Z M 11.828125 13.464844 "/>
<path style=" stroke:none;fill-rule:nonzero;fill:rgb(0%,0%,0%);fill-opacity:1;" d="M 12.277344 12.007812 C 12.261719 12.050781 12.242188 12.703125 12.242188 13.464844 C 12.242188 14.226562 12.261719 14.882812 12.277344 14.925781 C 12.304688 14.980469 12.691406 15 13.527344 15 L 14.738281 15 L 14.738281 11.929688 L 13.527344 11.929688 C 12.691406 11.929688 12.304688 11.949219 12.277344 12.007812 Z M 12.277344 12.007812 "/>
<path style=" stroke:none;fill-rule:nonzero;fill:rgb(0%,0%,0%);fill-opacity:1;" d="M 0.109375 14.441406 L 0.109375 14.859375 L 3.5 14.859375 L 3.5 14.023438 L 0.109375 14.023438 Z M 0.109375 14.441406 "/>
</g>
</svg>
